<svg xmlns="http://www.w3.org/2000/svg" width="118.602" height="28" viewBox="0 0 118.602 28">
  <g id="그룹_19523" data-name="그룹 19523" transform="translate(-376 -46)">
    <rect id="사각형_19927" data-name="사각형 19927" width="118" height="28" transform="translate(376 46)" fill="none"/>
    <g id="그룹_15146" data-name="그룹 15146" transform="translate(376 47)">
      <path id="패스_6268" data-name="패스 6268" d="M217.247,194.3v-6.572h12.306v-4.575H217.247v-6.4H231v-4.575H212.625V198.87h18.54V194.3Z" transform="translate(-182.414 -172.177)"/>
      <path id="패스_6269" data-name="패스 6269" d="M229.212,194.3v-6.572h12.306v-4.575H229.212v-6.4h13.756v-4.575H224.589V198.87h18.54V194.3Z" transform="translate(-172.743 -172.177)"/>
      <path id="패스_6270" data-name="패스 6270" d="M219.926,188.423a6.523,6.523,0,0,0-1.224-1.986,7.48,7.48,0,0,0-1.774-1.414c-.074-.042-.146-.083-.221-.123a7.073,7.073,0,0,0,1.089-1.157,6.641,6.641,0,0,0,.975-1.913,8.029,8.029,0,0,0,.356-2.515,6.827,6.827,0,0,0-1.729-4.638,7.681,7.681,0,0,0-2.837-1.85,10.5,10.5,0,0,0-3.8-.649H200.147V198.87h11.038a12.584,12.584,0,0,0,3.646-.5,8.688,8.688,0,0,0,2.933-1.5,6.822,6.822,0,0,0,1.948-2.485,7.79,7.79,0,0,0,.675-3.338A7.079,7.079,0,0,0,219.926,188.423Zm-15.188-.75h6.092a6.6,6.6,0,0,1,3.868.911,2.661,2.661,0,0,1,1.1,2.363,2.859,2.859,0,0,1-1.09,2.436,5.453,5.453,0,0,1-3.423.944h-6.543Zm8.763-5.436a5,5,0,0,1-3.125.893h-5.638v-6.409h5.832a4.649,4.649,0,0,1,3.042.846,2.634,2.634,0,0,1,.924,2.2A2.862,2.862,0,0,1,213.5,182.237Z" transform="translate(-192.5 -172.177)"/>
      <path id="패스_6271" data-name="패스 6271" d="M261.976,185.266a2.063,2.063,0,0,0-1.9-.881l.949-1.1,9.457-11.1h-5.8L254.56,183.859V172.192h-4.7v26.693h4.7v-8.161l.007-.009c0-.016,0-.033,0-.049a2.177,2.177,0,0,1,1.75-2.136c.045-.009.092-.009.137-.014a2.068,2.068,0,0,1,2.1.933l0,0,6.1,9.438h6.266Z" transform="translate(-152.317 -172.165)"/>
      <path id="패스_6272" data-name="패스 6272" d="M248.844,185.512h0l0,0-.161-.242a2.061,2.061,0,0,0-1.9-.881l.953-1.1,9.456-11.094h-5.8l-10.119,11.667V172.192h-4.7v26.693h4.7v-8.161l.007-.009c0-.016-.005-.033-.005-.049a2.177,2.177,0,0,1,1.75-2.136c.045-.009.092-.009.139-.014a2.065,2.065,0,0,1,2.1.933l0,0,6.1,9.438h6.266Z" transform="translate(-163.062 -172.165)"/>
      <path id="패스_6273" data-name="패스 6273" d="M228.435,183.693l-.92,4.025-31.128-7.127a.6.6,0,0,1-.452-.723l.787-3.438Z" transform="translate(-195.918 -168.738)" fill="#e95509"/>
    </g>
  </g>
</svg>
